<svg xmlns="http://www.w3.org/2000/svg" version="1.1" xmlns:xlink="http://www.w3.org/1999/xlink" xmlns:svgjs="http://svgjs.dev/svgjs" width="266" height="254"><svg width="266" height="254" viewBox="0 0 266 254" fill="none" xmlns="http://www.w3.org/2000/svg">
<path d="M140.133 8.04305L164.524 83.111C166.197 88.2613 170.997 91.7483 176.412 91.7483H255.343C262.609 91.7483 265.63 101.045 259.752 105.316L195.895 151.71C191.514 154.893 189.681 160.536 191.354 165.686L215.745 240.754C217.99 247.664 210.082 253.41 204.204 249.139L140.347 202.744C135.966 199.561 130.034 199.561 125.653 202.744L61.7961 249.139C55.9182 253.41 48.0096 247.664 50.2548 240.754L74.6458 165.686C76.3193 160.536 74.486 154.893 70.1049 151.71L6.24833 105.316C0.370485 101.045 3.3913 91.7483 10.6567 91.7483H89.5878C95.0031 91.7483 99.8026 88.2613 101.476 83.111L125.867 8.04303C128.112 1.13321 137.888 1.13321 140.133 8.04305Z" fill="#FFC90B" stroke="#E34934" stroke-width="5"></path>
</svg><style>@media (prefers-color-scheme: light) { :root { filter: none; } }
@media (prefers-color-scheme: dark) { :root { filter: none; } }
</style></svg>